<?xml version="1.0" encoding="utf-8"?>
<!-- Generator: Adobe Illustrator 28.1.0, SVG Export Plug-In . SVG Version: 6.00 Build 0)  -->
<svg version="1.1" id="レイヤー_1" xmlns="http://www.w3.org/2000/svg" xmlns:xlink="http://www.w3.org/1999/xlink" x="0px"
	 y="0px" viewBox="0 0 255 102" style="enable-background:new 0 0 255 102;" xml:space="preserve">
<style type="text/css">
	.st0{fill:none;stroke:#6D1A70;stroke-width:7;stroke-linejoin:round;stroke-miterlimit:10;}
	.st1{font-family:'HiraKakuStdN-W8-83pv-RKSJ-H';}
	.st2{font-size:30.6883px;}
	.st3{fill:#FFFFFF;}
	.st4{fill:#4181C4;}
</style>
<text transform="matrix(1 0 0 1 16.2163 52.5503)"><tspan x="0" y="0" class="st0 st1 st2">錦糸町キッズ</tspan><tspan x="0" y="34.5" class="st0 st1 st2">バク転教室！</tspan></text>
<text transform="matrix(1 0 0 1 16.2163 52.5503)"><tspan x="0" y="0" class="st3 st1 st2">錦糸町キッズ</tspan><tspan x="0" y="34.5" class="st3 st1 st2">バク転教室！</tspan></text>
<polygon class="st4" points="241,82.1 240.1,80.8 239.7,74.6 238.5,69.2 238.5,65.6 237.5,63.3 235.2,60.2 234.9,58.6 235.3,55.6 
	234.9,54.5 233.8,54.4 233.5,52.1 231.8,48.6 234.5,44.7 235.2,40.9 234.3,36.6 231.1,30 228.5,25.2 226.7,22.1 221.7,14.5 
	218.6,11.7 215.6,9.6 213.6,9 212.3,9.9 208.3,8.3 205.3,6.8 204.7,5.9 199.9,4.3 196.8,3.1 194,1.1 189.5,1.5 184,2.4 177.8,2.9 
	169.8,3.8 164.8,5.1 160.9,6.2 159.8,7 157.5,11 155.6,13.8 156,14.1 154.2,15.8 151.6,19.5 148.3,23.6 144.9,26.8 138.4,29.5 
	134.6,31.5 131.5,34.3 129.5,37.2 130,38.3 132.2,38.3 134.4,37.6 136.5,38.3 139.9,36.6 142.5,35.5 144.8,36.1 147.1,36.4 
	149,35.1 150.1,33.5 149.7,31 152.2,29.7 159.2,27 162.8,24.7 165.7,22.3 167.3,20.9 168.9,22.3 170,20.4 170.1,19.4 174.1,17 
	180.2,17.5 184.2,17.5 187.1,18 189.8,19.4 192.4,21.4 194.6,21.7 197,21.3 198.8,22.8 200.5,23.5 202.9,22.9 206.3,24.4 
	208.3,26.6 209.3,29.7 209.7,32 212.8,37.3 213.5,39.5 213.4,41.9 214.4,45.5 216.1,47.6 216.9,51 214.7,53.7 213.6,56.3 
	213.6,59.7 213.6,63 216.2,64.8 218.5,66.5 220.7,67.9 222.4,67.9 225.1,74.9 225.1,78.5 221.6,81.8 218.5,84.4 216,87.3 
	216.4,88.2 217.3,88.2 218.1,88.5 218.9,88.5 221.8,86.1 223.8,83.7 224.2,84.6 223.1,86.5 224.7,86.5 226.4,84.4 228.1,82 
	228.1,79.5 227.5,76.6 227.2,71.1 228.1,68.5 228.9,66.1 228.9,64.7 229.9,64.8 230.6,67.8 231.7,70.3 233.5,73.7 236.4,79.2 
	237.2,82.3 237.2,85.2 236.4,86.5 233.3,89.6 229.5,93.1 227.7,94.5 225.4,97.5 227,97.9 228.8,97.3 228.8,98.3 230,98.3 
	230.5,96.9 231.9,96.7 233.7,94.8 236.1,93.3 238.8,92 240.8,89.5 242,87 242,84.6 "/>
</svg>
